<?xml version="1.0" standalone="no"?>
<!DOCTYPE svg PUBLIC "-//W3C//DTD SVG 20010904//EN"
 "http://www.w3.org/TR/2001/REC-SVG-20010904/DTD/svg10.dtd">
<svg version="1.0" xmlns="http://www.w3.org/2000/svg"
 width="1042.000000pt" height="1042.000000pt" viewBox="0 0 1042.000000 1042.000000"
 preserveAspectRatio="xMidYMid meet">

<g transform="translate(0.000000,1042.000000) scale(0.100000,-0.100000)"
fill="#000000" stroke="none">
<path d="M4960 10184 c-25 -2 -103 -9 -175 -15 -800 -67 -1596 -342 -2275
-787 -309 -202 -534 -386 -800 -652 -411 -410 -709 -828 -961 -1344 -350 -719
-514 -1473 -496 -2286 10 -430 53 -748 157 -1148 343 -1317 1215 -2437 2415
-3103 1553 -861 3485 -816 5004 116 337 207 608 422 907 720 280 280 458 495
649 786 696 1055 963 2334 749 3589 -69 402 -198 824 -374 1215 -37 83 -71
164 -74 180 -4 17 -20 46 -35 65 -15 19 -40 58 -56 85 -266 469 -518 798 -886
1160 -254 249 -467 422 -750 608 -664 437 -1419 705 -2229 792 -136 15 -667
28 -770 19z m693 -282 l57 -7 -92 -61 c-293 -194 -576 -477 -770 -770 -246
-371 -393 -774 -437 -1202 -10 -97 -10 -97 -92 -197 -92 -110 -141 -236 -143
-367 l-1 -88 -173 -104 c-1446 -877 -2464 -2150 -2876 -3596 -29 -102 -64
-236 -77 -297 -13 -62 -27 -113 -30 -113 -18 0 -190 413 -264 635 -147 443
-222 884 -232 1375 -10 448 29 807 132 1225 317 1288 1162 2382 2334 3019 551
300 1191 493 1811 546 69 6 145 12 170 14 66 6 615 -4 683 -12z m650 -111 c5
-5 -20 -40 -55 -79 -348 -379 -640 -885 -782 -1356 -40 -131 -80 -315 -95
-445 -6 -46 -12 -85 -13 -86 -2 -1 -148 -5 -326 -7 l-323 -5 6 56 c14 123 58
314 106 456 206 620 692 1162 1289 1437 88 40 112 47 145 42 22 -3 44 -9 48
-13z m539 -157 c170 -63 385 -157 404 -176 12 -13 34 -185 55 -428 5 -69 13
-378 16 -687 l5 -562 -63 4 c-160 13 -617 26 -1083 32 l-508 6 7 61 c9 84 50
275 80 376 89 298 266 652 467 934 143 199 411 496 449 496 10 0 87 -25 171
-56z m841 -406 c347 -217 598 -416 882 -702 184 -184 282 -297 435 -501 110
-147 260 -373 260 -393 0 -15 -61 -12 -270 14 -276 33 -813 82 -1185 107
l-180 12 4 315 c3 327 -11 812 -32 1058 -7 78 -9 142 -5 142 5 0 45 -23 91
-52z m-972 -1728 c737 -25 1360 -65 1959 -126 140 -15 259 -30 263 -34 11 -10
-333 -94 -633 -155 -765 -156 -1506 -240 -2215 -252 -833 -14 -1385 81 -1560
268 -39 42 -45 54 -45 91 0 27 11 66 29 104 31 66 33 67 141 95 25 6 155 15
290 19 298 10 1367 3 1771 -10z m2864 -495 c188 -444 303 -925 346 -1450 15
-186 6 -687 -15 -865 -93 -759 -337 -1436 -743 -2060 -460 -704 -1126 -1289
-1888 -1656 -1491 -718 -3250 -604 -4625 300 -263 173 -464 333 -674 536 -237
229 -459 489 -622 730 l-87 128 12 84 c150 1035 608 1994 1347 2818 460 512
1035 980 1630 1324 l82 47 50 -35 c105 -76 309 -154 516 -197 l108 -23 -5 -40
c-7 -52 -30 -80 -118 -147 -179 -135 -313 -324 -391 -552 -30 -85 -32 -102
-32 -222 -1 -121 1 -136 31 -222 113 -323 325 -589 632 -794 179 -119 416
-229 599 -280 72 -19 87 -21 124 -10 53 16 93 57 108 110 13 48 9 62 -50 206
-92 223 -147 493 -137 675 13 212 58 324 181 445 140 139 294 202 471 192 107
-5 185 -30 280 -88 257 -156 610 -205 931 -129 231 55 436 170 593 336 171
180 262 391 279 648 l7 100 145 33 c262 60 705 181 810 221 14 6 28 7 31 3 4
-3 37 -78 74 -166z m-1377 -222 c-30 -250 -182 -458 -423 -578 -49 -24 -135
-57 -190 -72 -91 -25 -115 -28 -260 -27 -187 1 -271 19 -397 84 -43 22 -113
58 -155 80 -119 61 -212 82 -373 83 -154 1 -249 -19 -379 -79 -262 -121 -443
-329 -517 -595 -22 -80 -27 -120 -31 -274 -4 -154 -2 -198 16 -307 12 -70 30
-157 41 -195 10 -37 16 -70 14 -73 -8 -8 -130 59 -242 134 -173 114 -342 290
-430 446 -42 75 -90 198 -102 261 -14 71 9 171 63 284 60 123 148 230 258 311
126 94 194 195 220 328 l12 58 36 -6 c20 -3 149 -10 286 -16 610 -28 1468 37
2240 169 154 27 289 49 301 50 19 1 20 -2 12 -66z"/>
<path d="M6503 9165 c-156 -34 -300 -149 -371 -296 -22 -46 -43 -96 -46 -111
-6 -27 -5 -28 39 -29 25 -1 50 -2 56 -3 5 -1 21 25 33 56 96 236 361 346 593
247 27 -11 73 -40 105 -65 80 -62 128 -58 128 13 0 27 -8 39 -52 74 -141 111
-312 152 -485 114z"/>
<path d="M6084 8645 c-32 -48 0 -205 63 -312 l28 -48 3 169 c2 139 0 173 -13
192 -21 32 -60 31 -81 -1z"/>
<path d="M6596 8654 c-9 -8 -16 -28 -16 -44 0 -34 23 -50 69 -50 30 0 31 1 31
45 0 34 -5 47 -19 55 -27 14 -47 13 -65 -6z"/>
<path d="M6742 8618 l3 -53 164 -3 164 -3 -6 -35 c-20 -121 -125 -250 -252
-310 -68 -33 -75 -39 -75 -66 0 -20 -10 -40 -30 -60 l-30 -30 42 7 c249 41
444 251 465 501 4 52 2 78 -7 89 -10 13 -47 15 -227 15 l-214 0 3 -52z"/>
<path d="M6240 8303 l0 -92 52 -40 c29 -22 54 -38 56 -37 5 6 -76 215 -93 238
-14 21 -15 16 -15 -69z"/>
<path d="M6395 8201 c24 -68 34 -81 63 -81 33 0 52 16 52 45 0 18 -29 36 -122
73 -4 2 -1 -15 7 -37z"/>
<path d="M6580 8157 c0 -21 22 -37 50 -37 28 0 50 16 50 37 0 9 -16 13 -50 13
-34 0 -50 -4 -50 -13z"/>
<path d="M6535 8080 c-7 -11 18 -24 35 -18 6 2 1 9 -9 15 -13 8 -22 9 -26 3z"/>
<path d="M3380 2641 c-77 -25 -139 -81 -160 -146 -20 -60 -9 -156 23 -204 41
-62 97 -94 172 -99 76 -5 125 10 171 51 99 86 106 233 15 330 -52 57 -157 89
-221 68z"/>
<path d="M7880 2641 c-110 -36 -174 -119 -173 -226 1 -132 95 -225 228 -225
63 0 106 15 152 54 92 78 100 240 15 329 -54 57 -158 89 -222 68z"/>
<path d="M5150 2438 c-77 -53 -93 -114 -66 -249 46 -227 214 -408 441 -475 81
-24 239 -24 320 0 227 67 395 248 441 475 27 135 11 196 -66 249 -95 64 -230
-16 -230 -137 0 -104 -83 -228 -183 -272 -72 -32 -173 -32 -242 -1 -102 47
-171 145 -182 261 -8 77 -35 126 -83 151 -52 27 -109 26 -150 -2z"/>
</g>
</svg>
